<svg width="20" height="20" viewBox="0 0 64 64" fill="none" xmlns="http://www.w3.org/2000/svg">
  <!-- Tree trunk -->
  <rect x="29" y="52" width="4" height="10" fill="currentColor"/>
  <!-- Tree branches - layered effect -->
  <path d="M54,50c-1,0-45.297,0-46,0c-0.484,0-0.797-0.203,0-1c0.478-0.477,5.96-5.961,9-9h28c3.065,3.066,8.614,8.615,9.002,9.002C54.695,49.695,54.578,50,54,50z" fill="currentColor"/>
  <path d="M12,38c-0.609,0-0.773-0.227,0-1c0.461-0.461,5.956-5.955,9-9h20c3.07,3.07,8.634,8.635,9,9c0.648,0.648,0.656,1,0,1C49.479,38,12.135,38,12,38z" fill="currentColor"/>
  <path d="M16,26c-0.547,0-0.766-0.234,0-1c0.444-0.443,5.951-5.951,9-9h12c3.001,3,8.384,8.385,9,9c0.859,0.859,0.469,1,0,1C45.75,26,16.127,26,16,26z" fill="currentColor"/>
  <path d="M20,14c-0.547,0-0.789-0.211,0-1c0.641-0.641,9-9,10-10s1-1,2,0c0,0,9.303,9.305,9.999,10s0.61,1,0.001,1C41.679,14,20.127,14,20,14z" fill="currentColor"/>
</svg>