<svg width="20" height="20" viewBox="0 0 1024 1024" fill="none" xmlns="http://www.w3.org/2000/svg">
  <!-- Tree trunk -->
  <rect x="381.5" y="903.2" width="247.9" height="18.7" fill="currentColor"/>
  <!-- Tree crown -->
  <path d="M207.2 316a298.3 250.7 0 1 0 596.6 0 298.3 250.7 0 1 0-596.6 0Z" fill="currentColor"/>
  <!-- Tree branches -->
  <path d="M648.4 545.1a93.6 84.8 0 1 0 187.2 0 93.6 84.8 0 1 0-187.2 0Z" fill="currentColor"/>
  <path d="M188.6 630a93.6 84.8 0 1 0 187.2 0 93.6 84.8 0 1 0-187.2 0Z" fill="currentColor"/>
  <!-- Tree details -->
  <path d="M377.8 391.3c-16.7-16.7-71.2-33.3-73.9-30.5-2.8 2.8 13.8 57.2 30.5 73.9 16.7 16.7 40 20.5 52 8.5 11.9-11.9 8.1-35.2-8.6-51.9z" fill="currentColor"/>
  <path d="M616.2 414.6c16.7-16.7 33.3-71.2 30.5-73.9-2.8-2.8-57.2 13.8-73.9 30.5-16.7 16.7-20.5 40-8.5 52 11.9 11.9 35.2 8.1 51.9-8.6z" fill="currentColor"/>
  <path d="M471.1 220.7c0-23.6-26.8-73.9-30.7-73.9-3.9 0-30.7 50.2-30.7 73.9s13.7 42.8 30.7 42.8 30.7-19.2 30.7-42.8z" fill="currentColor"/>
  <path d="M681.1 267.6c16.7-16.7 33.3-71.2 30.5-73.9-2.8-2.8-57.2 13.8-73.9 30.5-16.7 16.7-20.5 40-8.5 52 11.9 11.9 35.2 8.1 51.9-8.6z" fill="currentColor"/>
</svg>