<svg width="20" height="20" viewBox="0 0 1024 1024" fill="none" xmlns="http://www.w3.org/2000/svg">
  <!-- Tree trunk -->
  <path d="M473.716012 993.063444l11.601209-379.746223v-4.640484l-170.151058-94.356495 170.151058 70.380664v-6.187311l1.546827-136.120846v-4.640483L361.570997 338.755287 486.864048 419.963746v-6.187311l3.093656-188.712991 4.640483 203.407855v6.187311L599.782477 340.302115 496.145015 463.274924v6.187312l1.546828 116.012084v4.640484l211.141994-99.770393-210.36858 126.066465v6.187311l14.694864 370.465257h-39.444109z" fill="currentColor"/>
  <!-- Tree crown -->
  <path d="M807.057402 313.232628v-2.320241c14.694864-85.075529-26.296073-172.471299-163.190333-151.589124-9.280967 1.546828-14.694864-62.646526-82.755287-76.567976-28.616314-5.413897-85.075529-6.187311-116.012084-0.773414-40.990937 6.960725-78.888218 40.217523-99.770393 89.716012H324.44713c-76.567976-4.640483-123.746224 63.41994-112.145015 134.574018 1.546828 6.960725 0.773414 13.92145 1.546828 20.882176-30.936556 20.882175-59.55287 68.060423-59.55287 114.465256 0 68.060423 53.365559 116.785498 109.824773 116.785499h0.773414c-6.960725 70.380665 56.459215 95.903323 107.504532 95.903323H471.39577c13.92145 0 27.069486-3.093656 39.444109-8.507553 13.92145 6.960725 28.616314 11.601208 44.858006 11.601209h99.770393c51.045317 0 94.356495-41.76435 107.504532-98.996979 0 0 106.731118 60.326284 133.02719-114.465257 12.374622-74.247734-38.670695-122.97281-88.942598-130.706949z" fill="currentColor"/>
</svg>